<svg xmlns="http://www.w3.org/2000/svg" viewBox="0 0 100 100" fill="none">
  <ellipse cx="50" cy="92" rx="25" ry="4" fill="#e67e22" opacity=".2"/>
  <rect x="38" y="10" width="24" height="8" rx="4" fill="#E67E22"/>
  <rect x="42" y="18" width="16" height="52" rx="2" fill="#D35400" opacity=".3"/>
  <circle cx="50" cy="38" r="14" stroke="#E67E22" stroke-width="3" fill="none"/>
  <path d="M36 38h28M50 24v28" stroke="#E67E22" stroke-width="1.5" opacity=".4"/>
  <path d="M32 58l-10 28h8l6-16" fill="#E67E22"/>
  <path d="M68 58l10 28h-8l-6-16" fill="#E67E22"/>
  <path d="M40 70l-6 16h32l-6-16" fill="#E67E22" opacity=".7"/>
  <rect x="34" y="54" width="32" height="4" rx="2" fill="#D35400"/>
  <rect x="44" y="72" width="12" height="4" rx="2" fill="#D35400" opacity=".5"/>
  <path d="M38 18v36M62 18v36" stroke="#E67E22" stroke-width="2.5"/>
  <circle cx="50" cy="38" r="4" fill="#E67E22" opacity=".3"/>
</svg>
