<svg xmlns="http://www.w3.org/2000/svg" viewBox="0 0 100 100" fill="none">
  <ellipse cx="50" cy="92" rx="24" ry="4" fill="#1c2833" opacity=".3"/>
  <path d="M28 90h44l6-28c1-6-1-12-4-16l-6-10V24c0-4-2-8-6-10-3-2-8-3-12-3s-9 1-12 3c-4 2-6 6-6 10v12l-6 10c-3 4-5 10-4 16z" fill="#2C3E50"/>
  <path d="M34 24c0-4 2-8 6-10 3-2 8-3 10-3" stroke="#1C2833" stroke-width="1.5" opacity=".5"/>
  <rect x="26" y="60" width="48" height="6" rx="3" fill="#34495E"/>
  <rect x="26" y="42" width="48" height="3" rx="1.5" fill="#34495E" opacity=".5"/>
  <path d="M32 90l4-16h28l4 16" fill="#1C2833" opacity=".3"/>
  <rect x="30" y="84" width="40" height="6" rx="2" fill="#ABB2B9"/>
  <circle cx="50" cy="87" r="2" fill="#2C3E50"/>
</svg>
