<svg xmlns="http://www.w3.org/2000/svg" viewBox="0 0 100 100" fill="none">
  <ellipse cx="50" cy="72" rx="38" ry="4" fill="#2980b9" opacity=".15"/>
  <path d="M10 42c0-4 2-8 6-10l28-10c4-1 8-1 12 0l28 10c4 2 6 6 6 10v4c0 4-2 8-6 10l-28 10c-4 1-8 1-12 0L16 56c-4-2-6-6-6-10z" fill="rgba(41,128,185,.12)" stroke="#2980B9" stroke-width="2"/>
  <path d="M14 42c0-3 1.5-6 4.5-7.5L48 24.5c1.3-.5 2.7-.5 4 0l29.5 10c3 1.5 4.5 4.5 4.5 7.5" fill="none" stroke="#2980B9" stroke-width="1.5" opacity=".5"/>
  <ellipse cx="36" cy="42" rx="12" ry="10" fill="rgba(41,128,185,.08)" stroke="#2980B9" stroke-width="1.5"/>
  <ellipse cx="64" cy="42" rx="12" ry="10" fill="rgba(41,128,185,.08)" stroke="#2980B9" stroke-width="1.5"/>
  <path d="M48 42c0-5 1-6 2-6s2 1 2 6-1 6-2 6-2-1-2-6z" fill="#2980B9" opacity=".3"/>
  <path d="M10 44l-2 1M90 44l2 1" stroke="#2980B9" stroke-width="2" stroke-linecap="round"/>
  <path d="M8 45c-2 0-3-1-3-3v-2c0-2 1-3 3-3" stroke="#2980B9" stroke-width="1.5" fill="none"/>
  <path d="M92 45c2 0 3-1 3-3v-2c0-2-1-3-3-3" stroke="#2980B9" stroke-width="1.5" fill="none"/>
</svg>
