<svg xmlns="http://www.w3.org/2000/svg" viewBox="0 0 100 100" fill="none">
  <ellipse cx="50" cy="88" rx="30" ry="4" fill="#27ae60" opacity=".2"/>
  <rect x="22" y="28" width="22" height="40" rx="11" fill="#27AE60"/>
  <rect x="56" y="28" width="22" height="40" rx="11" fill="#27AE60"/>
  <rect x="22" y="28" width="22" height="40" rx="11" stroke="#1E8449" stroke-width="1.5" fill="none"/>
  <rect x="56" y="28" width="22" height="40" rx="11" stroke="#1E8449" stroke-width="1.5" fill="none"/>
  <path d="M44 40c0-2 2-4 6-4s6 2 6 4v16c0 2-2 4-6 4s-6-2-6-4z" fill="#2C3E50"/>
  <rect x="46" y="44" width="8" height="4" rx="2" fill="#1E8449"/>
  <circle cx="33" cy="48" r="6" fill="#1E8449" opacity=".3"/>
  <circle cx="67" cy="48" r="6" fill="#1E8449" opacity=".3"/>
  <circle cx="33" cy="48" r="3" stroke="#fff" stroke-width="1.5" fill="none" opacity=".4"/>
  <circle cx="67" cy="48" r="3" stroke="#fff" stroke-width="1.5" fill="none" opacity=".4"/>
  <path d="M22 38h-4c-2 0-3 1-3 3v14c0 2 1 3 3 3h4M78 38h4c2 0 3 1 3 3v14c0 2-1 3-3 3h-4" stroke="#1E8449" stroke-width="2" fill="none"/>
</svg>
