<svg xmlns="http://www.w3.org/2000/svg" viewBox="0 0 100 100" fill="none">
  <ellipse cx="50" cy="90" rx="28" ry="4" fill="#2c3e50" opacity=".2"/>
  <path d="M30 40c0-12 9-22 20-22s20 10 20 22v8c0 4-2 7-5 9l-3 3v8c0 3-2 6-5 7H43c-3-1-5-4-5-7v-8l-3-3c-3-2-5-5-5-9z" fill="#566573"/>
  <path d="M30 40c0-12 9-22 20-22s20 10 20 22" fill="white" opacity=".1"/>
  <circle cx="40" cy="40" r="6" fill="#ABB2B9"/>
  <circle cx="60" cy="40" r="6" fill="#ABB2B9"/>
  <circle cx="40" cy="40" r="3" fill="#85929E"/>
  <circle cx="60" cy="40" r="3" fill="#85929E"/>
  <path d="M22 50c-4 0-7 3-7 6v10c0 3 3 6 7 6h4l4-8v-6l-4-8z" fill="#E74C3C"/>
  <path d="M78 50c4 0 7 3 7 6v10c0 3-3 6-7 6h-4l-4-8v-6l4-8z" fill="#E74C3C"/>
  <path d="M30 48h-4M74 48h4" stroke="#566573" stroke-width="3" stroke-linecap="round"/>
  <rect x="38" y="68" width="24" height="6" rx="3" fill="#566573" opacity=".5"/>
  <text x="50" y="84" text-anchor="middle" font-size="6" font-weight="bold" fill="#566573" opacity=".7">ABE1</text>
</svg>
